<svg width="14" height="20" viewBox="0 0 14 20" fill="none" xmlns="http://www.w3.org/2000/svg">
<g clip-path="url(#clip0_42_1720)">
<path d="M12.4901 8.14413L7.57978 0.324872C7.50853 0.224879 7.41442 0.143363 7.30529 0.0871173C7.19615 0.0308716 7.07515 0.00152588 6.95237 0.00152588C6.82959 0.00152588 6.70859 0.0308716 6.59946 0.0871173C6.49032 0.143363 6.39621 0.224879 6.32496 0.324872L1.39237 8.18117C0.707102 9.28655 0.325384 10.5531 0.285706 11.853C0.285706 13.6211 0.988084 15.3168 2.23833 16.5671C3.48857 17.8173 5.18426 18.5197 6.95237 18.5197C8.72048 18.5197 10.4162 17.8173 11.6664 16.5671C12.9167 15.3168 13.619 13.6211 13.619 11.853C13.5765 10.5388 13.187 9.25922 12.4901 8.14413ZM6.95237 17.0382C5.57772 17.0364 4.25987 16.4896 3.28784 15.5176C2.31581 14.5455 1.76895 13.2277 1.76719 11.853C1.80656 10.8172 2.11771 9.80988 2.66941 8.93228L3.362 7.82858L10.8242 15.2908C10.3396 15.8399 9.74373 16.2797 9.07622 16.5811C8.40871 16.8825 7.68477 17.0378 6.95237 17.0382Z" fill="white"/>
</g>
<defs>
<clipPath id="clip0_42_1720">
<rect width="13.3333" height="20" fill="white" transform="translate(0.285706)"/>
</clipPath>
</defs>
</svg>
