<svg width="25" height="20" viewBox="0 0 25 20" fill="none" xmlns="http://www.w3.org/2000/svg">
<path d="M7.28571 5.75C7.28571 4.90943 7.53496 4.08774 8.00196 3.38883C8.46896 2.68992 9.13271 2.14519 9.9093 1.82351C10.6859 1.50184 11.5404 1.41768 12.3648 1.58166C13.1893 1.74565 13.9465 2.15042 14.5409 2.7448C15.1353 3.33917 15.5401 4.09645 15.704 4.92087C15.868 5.74529 15.7839 6.59982 15.4622 7.37641C15.1405 8.15299 14.5958 8.81675 13.8969 9.28375C13.198 9.75074 12.3763 10 11.5357 10H3.03571C2.83679 10 2.64603 9.92098 2.50538 9.78033C2.36472 9.63968 2.28571 9.44891 2.28571 9.25C2.28571 9.05109 2.36472 8.86032 2.50538 8.71967C2.64603 8.57902 2.83679 8.5 3.03571 8.5H11.5357C12.0796 8.5 12.6113 8.33872 13.0635 8.03654C13.5158 7.73437 13.8682 7.30488 14.0764 6.80238C14.2845 6.29988 14.339 5.74695 14.2329 5.2135C14.1268 4.68006 13.8648 4.19005 13.4802 3.80546C13.0957 3.42086 12.6056 3.15895 12.0722 3.05284C11.5388 2.94673 10.9858 3.00119 10.4833 3.20933C9.98083 3.41747 9.55134 3.76995 9.24916 4.22218C8.94699 4.67442 8.7857 5.2061 8.7857 5.75C8.7857 5.94891 8.70669 6.13968 8.56603 6.28033C8.42538 6.42098 8.23462 6.5 8.03571 6.5C7.83679 6.5 7.64603 6.42098 7.50537 6.28033C7.36472 6.13968 7.28571 5.94891 7.28571 5.75ZM15.8347 9.962C16.0104 9.25879 16.4162 8.63451 16.9875 8.18842C17.5588 7.74232 18.2629 7.50001 18.9877 7.5H19.0357C19.8977 7.5 20.7243 7.84241 21.3338 8.4519C21.9433 9.0614 22.2857 9.88805 22.2857 10.75C22.2857 11.612 21.9433 12.4386 21.3338 13.0481C20.7243 13.6576 19.8977 14 19.0357 14H17.8842C18.0884 14.3552 18.2177 14.7486 18.2641 15.1557C18.3105 15.5629 18.2729 15.9752 18.1538 16.3673C18.0347 16.7593 17.8366 17.1229 17.5715 17.4354C17.3065 17.7479 16.9803 18.0029 16.613 18.1845C16.2456 18.3661 15.845 18.4705 15.4358 18.4913C15.0265 18.5122 14.6174 18.4489 14.2335 18.3055C13.8496 18.1621 13.4992 17.9416 13.2039 17.6575C12.9085 17.3735 12.6745 17.032 12.5162 16.654L12.4682 16.5385C12.4303 16.4476 12.4107 16.35 12.4105 16.2515C12.4103 16.153 12.4295 16.0554 12.467 15.9643C12.5045 15.8732 12.5596 15.7904 12.6292 15.7206C12.6987 15.6508 12.7813 15.5954 12.8722 15.5575C12.9631 15.5196 13.0607 15.5 13.1592 15.4998C13.2577 15.4996 13.3553 15.5188 13.4464 15.5563C13.5375 15.5938 13.6203 15.6489 13.6901 15.7185C13.7599 15.788 13.8153 15.8706 13.8532 15.9615L13.9012 16.0765C14.0056 16.3272 14.176 16.5448 14.3944 16.7062C14.6127 16.8676 14.8708 16.9667 15.141 16.993C15.4113 17.0192 15.6836 16.9716 15.9289 16.8552C16.1743 16.7388 16.3834 16.558 16.534 16.3321C16.6847 16.1062 16.7711 15.8436 16.7842 15.5724C16.7974 15.3012 16.7366 15.0315 16.6085 14.7921C16.4803 14.5527 16.2896 14.3526 16.0566 14.2131C15.8237 14.0736 15.5572 13.9999 15.2857 14H3.03571C2.83679 14 2.64603 13.921 2.50538 13.7803C2.36472 13.6397 2.28571 13.4489 2.28571 13.25C2.28571 13.0511 2.36472 12.8603 2.50538 12.7197C2.64603 12.579 2.83679 12.5 3.03571 12.5H19.0357C19.2655 12.5 19.4931 12.4547 19.7054 12.3668C19.9177 12.2788 20.1106 12.1499 20.2731 11.9874C20.4356 11.8249 20.5645 11.632 20.6525 11.4197C20.7404 11.2074 20.7857 10.9798 20.7857 10.75C20.7857 10.5202 20.7404 10.2926 20.6525 10.0803C20.5645 9.86799 20.4356 9.67507 20.2731 9.51256C20.1106 9.35006 19.9177 9.22116 19.7054 9.13321C19.4931 9.04527 19.2655 9 19.0357 9H18.9877C18.5974 8.99994 18.2183 9.13037 17.9106 9.37054C17.6029 9.61071 17.3844 9.94685 17.2897 10.3255L17.2632 10.432C17.2405 10.5288 17.1988 10.6201 17.1404 10.7006C17.0821 10.7811 17.0084 10.8492 16.9235 10.901C16.8386 10.9527 16.7443 10.9871 16.646 11.0021C16.5477 11.017 16.4475 11.0123 16.351 10.9882C16.2546 10.9641 16.1639 10.921 16.0843 10.8615C16.0046 10.802 15.9376 10.7273 15.8871 10.6417C15.8366 10.5561 15.8036 10.4612 15.79 10.3628C15.7765 10.2643 15.7827 10.1641 15.8082 10.068L15.8347 9.962Z" fill="white"/>
</svg>
