<svg width="24" height="28" viewBox="0 0 24 28" fill="none" xmlns="http://www.w3.org/2000/svg">
<g clip-path="url(#clip0_42_1716)">
<path d="M11.985 0.827271C11.599 0.827271 11.2129 0.916974 10.9139 1.09638L1.36687 6.82342C0.768742 7.18223 0.768742 7.74962 1.36687 8.10844L10.9139 13.8355C11.5121 14.1943 12.4579 14.1943 13.0559 13.8355L22.603 8.10844C23.2011 7.74969 23.2011 7.18223 22.603 6.82348L13.0559 1.09645C12.7569 0.916909 12.3709 0.827271 11.985 0.827271ZM11.9335 4.26959C12.4968 4.27587 13.0033 4.40971 13.4529 4.67092C13.7604 4.84968 13.9618 5.05352 14.057 5.28264C14.1491 5.50995 14.1545 5.80959 14.0732 6.1813L13.9732 6.55113C13.907 6.81577 13.8932 7.00613 13.932 7.12215C13.9676 7.23648 14.0559 7.33461 14.1971 7.41667L14.409 7.53969L12.3318 8.74654L12.101 8.61257C11.8436 8.4631 11.6795 8.2942 11.6083 8.10571C11.5341 7.91548 11.5464 7.61293 11.6454 7.19798L11.7407 6.82543C11.7961 6.60357 11.8015 6.42163 11.7569 6.27982C11.7161 6.13567 11.6236 6.02166 11.4792 5.93779C11.2595 5.8101 10.9963 5.76434 10.6898 5.80019C10.3801 5.83428 10.0603 5.94719 9.73043 6.13884C9.41968 6.31935 9.13749 6.54536 8.88355 6.81681C8.62655 7.08657 8.40606 7.39522 8.22187 7.74288L6.74374 6.88396C7.07612 6.53784 7.40268 6.23516 7.72349 5.97571C8.04437 5.71645 8.38312 5.48311 8.73987 5.27571C9.67587 4.73191 10.5463 4.40848 11.3511 4.30562C11.5443 4.27988 11.7389 4.26782 11.9336 4.26952L11.9335 4.26959ZM15.1058 7.94459L16.7817 8.91836L14.7046 10.1252L13.0286 9.1515L15.1058 7.94459ZM0.729366 9.19331C0.369804 9.18326 0.125366 9.47434 0.125366 9.98923V20.2103C0.125366 20.9266 0.598492 21.7764 1.19662 22.1346L10.3797 27.634C10.9779 27.9922 11.451 27.709 11.451 26.9927V16.7715C11.451 16.0551 10.9779 15.2055 10.3797 14.8472L1.19662 9.34789C1.02849 9.2471 0.870054 9.19707 0.729366 9.19318V9.19331ZM23.2777 9.19344C23.1371 9.19733 22.9787 9.24723 22.8106 9.34802L13.6271 14.8474C13.029 15.2056 12.5559 16.0554 12.5559 16.7717V26.993C12.5559 27.7092 13.029 27.9923 13.6271 27.634L22.8106 22.1349C23.4087 21.7766 23.8817 20.927 23.8817 20.2107V9.98936C23.8817 9.4746 23.6373 9.18358 23.2777 9.19357V9.19344ZM3.18112 13.3255C3.59068 13.414 3.96474 13.5224 4.30324 13.6504C4.64257 13.7789 4.97048 13.9377 5.28324 14.1252C6.10905 14.6197 6.73862 15.1832 7.17187 15.8157C7.60512 16.4444 7.82174 17.115 7.82174 17.8275C7.82174 18.1931 7.7558 18.4818 7.62374 18.6937C7.49174 18.9019 7.26662 19.0768 6.94849 19.2183L6.62349 19.3428C6.39337 19.4363 6.24268 19.5326 6.17162 19.6319C6.10055 19.7273 6.06505 19.8588 6.06505 20.0267V20.2785L4.23224 19.181V18.9068C4.23224 18.6009 4.28799 18.364 4.39974 18.1958C4.51143 18.0239 4.74674 17.8627 5.10549 17.7119L5.43049 17.5818C5.62343 17.5034 5.76387 17.4048 5.85187 17.2858C5.94312 17.169 5.98887 17.0247 5.98887 16.8531C5.98887 16.5921 5.90762 16.3401 5.74512 16.0974C5.58262 15.8508 5.35593 15.6404 5.0648 15.4661C4.79062 15.302 4.49443 15.188 4.17624 15.1244C3.85812 15.057 3.52637 15.0431 3.18112 15.0826V13.3255ZM20.0274 13.8834C20.1225 13.8834 20.2106 13.8941 20.2919 13.9153C20.7251 14.0253 20.9417 14.4364 20.9417 15.149C20.9417 15.5146 20.8757 15.8823 20.7437 16.2524C20.6117 16.6186 20.3866 17.063 20.0685 17.5855L19.7435 18.0991C19.5134 18.4682 19.3627 18.7448 19.2916 18.9291C19.2206 19.1096 19.1851 19.2839 19.1851 19.4517V19.7035L17.3522 20.801V20.5268C17.3522 20.2209 17.4081 19.9169 17.5197 19.6151C17.6316 19.3095 17.8667 18.8665 18.2255 18.2861L18.5505 17.7669C18.7434 17.4574 18.8839 17.1905 18.9719 16.9662C19.0631 16.7399 19.1089 16.5409 19.1089 16.3693C19.1089 16.1082 19.0276 15.9536 18.8652 15.9053C18.7027 15.8535 18.4759 15.9145 18.1848 16.0888C17.9106 16.2529 17.6146 16.4939 17.2964 16.8111C16.9782 17.1248 16.6465 17.508 16.3012 17.9609V16.2038C16.7108 15.802 17.0847 15.4623 17.4231 15.185C17.7617 14.9078 18.0884 14.675 18.4031 14.4865C19.0742 14.0847 19.6156 13.8836 20.0275 13.8833L20.0274 13.8834ZM4.23218 20.0093L6.06505 21.1067V23.0988L4.23224 22.0015V20.0094L4.23218 20.0093ZM19.1851 20.5318V22.5238L17.3522 23.6211V21.6292L19.1851 20.5318Z" fill="white"/>
</g>
<defs>
<clipPath id="clip0_42_1716">
<rect width="24" height="28" fill="white"/>
</clipPath>
</defs>
</svg>
