<svg width="18" height="20" viewBox="0 0 18 20" fill="none" xmlns="http://www.w3.org/2000/svg">
<path d="M15.381 17.6191H2.04766C1.79507 17.6191 1.55283 17.7194 1.37422 17.898C1.19562 18.0766 1.09528 18.3188 1.09528 18.5714C1.09528 18.824 1.19562 19.0663 1.37422 19.2449C1.55283 19.4235 1.79507 19.5238 2.04766 19.5238H15.381C15.6336 19.5238 15.8758 19.4235 16.0544 19.2449C16.233 19.0663 16.3334 18.824 16.3334 18.5714C16.3334 18.3188 16.233 18.0766 16.0544 17.898C15.8758 17.7194 15.6336 17.6191 15.381 17.6191ZM8.03813 15.4381C8.12871 15.5248 8.23551 15.5928 8.35242 15.6381C8.46642 15.6885 8.58968 15.7145 8.71432 15.7145C8.83896 15.7145 8.96223 15.6885 9.07623 15.6381C9.19313 15.5928 9.29994 15.5248 9.39051 15.4381L13.2 11.6286C13.3794 11.4492 13.4801 11.206 13.4801 10.9524C13.4801 10.6988 13.3794 10.4555 13.2 10.2762C13.0207 10.0969 12.7775 9.99611 12.5238 9.99611C12.2702 9.99611 12.027 10.0969 11.8477 10.2762L9.6667 12.4667V1.42858C9.6667 1.17599 9.56636 0.933748 9.38776 0.755142C9.20915 0.576536 8.96691 0.476196 8.71432 0.476196C8.46174 0.476196 8.21949 0.576536 8.04089 0.755142C7.86228 0.933748 7.76194 1.17599 7.76194 1.42858V12.4667L5.58099 10.2762C5.49219 10.1874 5.38677 10.117 5.27075 10.0689C5.15473 10.0208 5.03038 9.99611 4.9048 9.99611C4.77922 9.99611 4.65487 10.0208 4.53885 10.0689C4.42283 10.117 4.31741 10.1874 4.22861 10.2762C4.13981 10.365 4.06937 10.4704 4.02131 10.5864C3.97326 10.7025 3.94852 10.8268 3.94852 10.9524C3.94852 11.078 3.97326 11.2023 4.02131 11.3183C4.06937 11.4344 4.13981 11.5398 4.22861 11.6286L8.03813 15.4381Z" fill="white"/>
</svg>
