<svg width="48" height="48" viewBox="0 0 48 48" fill="none" xmlns="http://www.w3.org/2000/svg">
<path d="M23.999 7C30.336 7 33.931 11.195 34.454 16.26H34.614C38.692 16.26 41.998 19.558 41.998 23.625C41.998 27.693 38.692 30.99 34.614 30.99H34.547L30.247 38.149C30.0138 38.5322 29.6423 38.8112 29.2092 38.9284C28.7762 39.0456 28.3147 38.992 27.92 38.7787C27.5254 38.5654 27.2277 38.2086 27.0885 37.7822C26.9493 37.3557 26.9792 36.8921 27.172 36.487L27.247 36.347L30.464 30.99H26.547L22.247 38.149C22.0138 38.5322 21.6423 38.8112 21.2092 38.9284C20.7762 39.0456 20.3147 38.992 19.92 38.7787C19.5254 38.5654 19.2277 38.2086 19.0885 37.7822C18.9493 37.3557 18.9792 36.8921 19.172 36.487L19.247 36.347L22.464 30.99H18.547L14.247 38.149C14.0138 38.5322 13.6423 38.8112 13.2092 38.9284C12.7762 39.0456 12.3147 38.992 11.92 38.7787C11.5254 38.5654 11.2277 38.2086 11.0885 37.7822C10.9493 37.3557 10.9792 36.8921 11.172 36.487L11.247 36.347L14.464 30.99H13.384C9.306 30.99 6 27.693 6 23.625C6 19.558 9.306 16.26 13.384 16.26H13.544C14.07 11.161 17.661 7 23.999 7Z" fill="white"/>
</svg>
