<svg width="48" height="48" viewBox="0 0 48 48" fill="none" xmlns="http://www.w3.org/2000/svg">
<path d="M25.996 15.998C32.333 15.998 35.928 20.192 36.45 25.258H36.61C40.688 25.258 43.994 28.555 43.994 32.623C43.994 36.69 40.688 39.988 36.61 39.988H15.38C11.303 39.988 7.99697 36.69 7.99697 32.623C7.99697 28.555 11.303 25.258 15.381 25.258H15.541C16.067 20.158 19.658 15.998 25.996 15.998ZM7.56896 24.19C7.78663 24.5668 7.85611 25.0112 7.76385 25.4364C7.67159 25.8617 7.4242 26.2373 7.06997 26.49L6.92797 26.58L5.62897 27.33C5.23961 27.5556 4.77833 27.6225 4.34093 27.5169C3.90353 27.4112 3.52362 27.1412 3.28011 26.7628C3.0366 26.3844 2.9482 25.9268 3.03328 25.4849C3.11835 25.043 3.37036 24.6509 3.73697 24.39L3.87897 24.3L5.17897 23.55C5.5808 23.3181 6.05829 23.2552 6.50646 23.3752C6.95464 23.4952 7.33681 23.7883 7.56896 24.19ZM21.705 14.65C17.904 15.87 15.196 18.741 14.085 22.572L13.991 22.912L13.875 23.388L13.463 23.465C12.2656 23.7166 11.1298 24.2026 10.121 24.895C9.20146 23.3193 8.85696 21.4734 9.14619 19.6721C9.43543 17.8708 10.3405 16.2256 11.7071 15.0169C13.0737 13.8083 14.8172 13.1111 16.6404 13.0442C18.4635 12.9773 20.2534 13.5448 21.705 14.65ZM5.50497 13.979L5.63697 14.034L6.99697 14.668C7.40566 14.8594 7.72464 15.2012 7.8873 15.6221C8.04995 16.0431 8.04372 16.5106 7.86988 16.927C7.69605 17.3434 7.36807 17.6766 6.95441 17.857C6.54076 18.0374 6.07341 18.051 5.64997 17.895L5.51797 17.84L4.15797 17.206C3.74927 17.0147 3.43029 16.6728 3.26763 16.2519C3.10498 15.831 3.11121 15.3635 3.28505 14.947C3.45888 14.5306 3.78686 14.1974 4.20052 14.017C4.61417 13.8366 5.08152 13.823 5.50497 13.979ZM24.615 8.216C24.9751 8.46787 25.2273 8.84602 25.3214 9.2753C25.4155 9.70458 25.3447 10.1536 25.123 10.533L25.045 10.653L24.185 11.883C23.9268 12.2554 23.5343 12.5131 23.09 12.6019C22.6456 12.6908 22.1842 12.6038 21.8027 12.3594C21.4212 12.1149 21.1493 11.732 21.0444 11.2912C20.9394 10.8505 21.0096 10.3862 21.24 9.996L21.318 9.875L22.178 8.646C22.3098 8.45763 22.4774 8.29708 22.6713 8.17351C22.8651 8.04994 23.0815 7.96579 23.3079 7.92586C23.5343 7.88593 23.7663 7.891 23.9908 7.94078C24.2152 7.99056 24.4267 8.08409 24.615 8.216ZM14.324 7.797L14.389 7.953L14.902 9.363C15.0559 9.78551 15.0412 10.251 14.8611 10.663C14.6809 11.0751 14.3491 11.4019 13.9344 11.5758C13.5197 11.7497 13.054 11.7573 12.6339 11.597C12.2138 11.4368 11.8715 11.1209 11.678 10.715L11.613 10.559L11.1 9.149C10.9461 8.7265 10.9607 8.26096 11.1409 7.84896C11.321 7.43695 11.6528 7.11011 12.0675 6.93621C12.4822 6.76231 12.9479 6.75471 13.368 6.91498C13.7882 7.07525 14.1305 7.3911 14.324 7.797Z" fill="white"/>
</svg>
