<svg width="48" height="48" viewBox="0 0 48 48" fill="none" xmlns="http://www.w3.org/2000/svg">
<path d="M32.25 38.5C32.7015 38.5002 33.1355 38.6749 33.4612 38.9876C33.7869 39.3003 33.9791 39.7268 33.9977 40.1779C34.0163 40.6291 33.8598 41.0699 33.561 41.4084C33.2621 41.7468 32.844 41.9567 32.394 41.994L32.251 42H15.751C15.2995 41.9998 14.8655 41.8251 14.5398 41.5124C14.2141 41.1997 14.0219 40.7732 14.0033 40.3221C13.9847 39.8709 14.1412 39.4301 14.44 39.0916C14.7389 38.7532 15.157 38.5434 15.607 38.506L15.751 38.5H32.25ZM38.25 32.505C38.7015 32.5052 39.1355 32.6799 39.4612 32.9926C39.7869 33.3053 39.9791 33.7318 39.9977 34.1829C40.0163 34.6341 39.8598 35.0749 39.561 35.4134C39.2621 35.7518 38.844 35.9617 38.394 35.999L38.251 36.005H9.75C9.29857 36.0046 8.86478 35.8297 8.53927 35.5169C8.21375 35.2041 8.0217 34.7776 8.00324 34.3266C7.98478 33.8755 8.14134 33.4348 8.4402 33.0964C8.73907 32.7581 9.15712 32.5484 9.607 32.511L9.75 32.505H38.25ZM24 6.01001C30.337 6.01001 33.932 10.204 34.455 15.27H34.615C38.693 15.27 41.999 18.567 41.999 22.635C41.999 26.703 38.692 30 34.614 30H13.384C9.306 30 6 26.703 6 22.635C6 18.567 9.306 15.27 13.384 15.27H13.544C14.07 10.171 17.662 6.01001 24 6.01001Z" fill="white"/>
</svg>
