<svg width="48" height="48" viewBox="0 0 48 48" fill="none" xmlns="http://www.w3.org/2000/svg">
<path d="M27.356 25.395C27.694 25.6714 27.9165 26.0642 27.9798 26.4962C28.0431 26.9282 27.9426 27.3683 27.698 27.73L27.603 27.858L25.439 30.503H30.245C31.681 30.503 32.487 32.125 31.675 33.263L31.589 33.374L24.088 42.371C23.8003 42.7192 23.3891 42.9428 22.9404 42.9948C22.4917 43.0468 22.0402 42.9233 21.6805 42.6501C21.3207 42.3769 21.0806 41.9752 21.0102 41.529C20.9399 41.0828 21.0448 40.6266 21.303 40.256L21.4 40.129L26.506 34.003H21.748C20.32 34.003 19.512 32.397 20.308 31.258L20.394 31.146L24.894 25.642C25.1878 25.2829 25.6122 25.0551 26.0739 25.0088C26.5356 24.9624 26.9967 25.1014 27.356 25.395ZM26 10.018C32.338 10.018 35.932 14.212 36.455 19.278H36.615C40.693 19.278 43.999 22.576 43.999 26.643C43.999 30.711 40.693 34.008 36.615 34.008H33.552C34.836 31.572 33.138 28.503 30.246 28.503H29.552L29.619 28.372C30.359 26.796 29.967 24.946 28.623 23.847C28.2417 23.5353 27.8028 23.3017 27.3312 23.1597C26.8597 23.0176 26.3648 22.9698 25.8747 23.019C25.3847 23.0682 24.9092 23.2135 24.4753 23.4465C24.0414 23.6795 23.6577 23.9957 23.346 24.377L18.846 29.88L18.715 30.051L18.613 30.204C18.2495 30.7661 18.0424 31.415 18.0129 32.0837C17.9833 32.7525 18.1325 33.417 18.445 34.009H15.385C11.308 34.009 8.00202 30.711 8.00202 26.643C8.00202 22.657 11.177 19.41 15.142 19.282L15.546 19.278C16.071 14.179 19.662 10.018 26 10.018ZM19.997 4C21.5309 3.99926 23.0417 4.37265 24.3987 5.0878C25.7556 5.80295 26.9176 6.83827 27.784 8.104C27.1906 8.03385 26.5936 7.99912 25.996 8C19.918 8 15.52 11.44 14.036 16.62L13.956 16.91L13.841 17.386L13.428 17.462C11.8523 17.7955 10.389 18.5291 9.17903 19.5923C7.96911 20.6554 7.05337 22.0122 6.52002 23.532C5.44299 22.6908 4.6554 21.5343 4.2671 20.224C3.87881 18.9137 3.90918 17.5148 4.35397 16.2226C4.79877 14.9304 5.63582 13.8092 6.74834 13.0155C7.86086 12.2218 9.19338 11.7951 10.56 11.795H10.702C11.0884 9.61076 12.2316 7.63234 13.9311 6.20693C15.6306 4.78152 17.7789 4.00017 19.997 4Z" fill="white"/>
</svg>
