<svg width="48" height="48" viewBox="0 0 48 48" fill="none" xmlns="http://www.w3.org/2000/svg">
<path d="M19.502 36C19.8998 36 20.2814 36.158 20.5627 36.4393C20.844 36.7206 21.002 37.1022 21.002 37.5C21.002 37.8978 20.844 38.2794 20.5627 38.5607C20.2814 38.842 19.8998 39 19.502 39C19.1042 39 18.7226 38.842 18.4413 38.5607C18.16 38.2794 18.002 37.8978 18.002 37.5C18.002 37.1022 18.16 36.7206 18.4413 36.4393C18.7226 36.158 19.1042 36 19.502 36ZM28.502 36C28.8998 36 29.2814 36.158 29.5627 36.4393C29.844 36.7206 30.002 37.1022 30.002 37.5C30.002 37.8978 29.844 38.2794 29.5627 38.5607C29.2814 38.842 28.8998 39 28.502 39C28.1042 39 27.7227 38.842 27.4413 38.5607C27.16 38.2794 27.002 37.8978 27.002 37.5C27.002 37.1022 27.16 36.7206 27.4413 36.4393C27.7227 36.158 28.1042 36 28.502 36ZM15.002 34C15.3998 34 15.7814 34.158 16.0627 34.4393C16.344 34.7206 16.502 35.1022 16.502 35.5C16.502 35.8978 16.344 36.2794 16.0627 36.5607C15.7814 36.842 15.3998 37 15.002 37C14.6042 37 14.2226 36.842 13.9413 36.5607C13.66 36.2794 13.502 35.8978 13.502 35.5C13.502 35.1022 13.66 34.7206 13.9413 34.4393C14.2226 34.158 14.6042 34 15.002 34ZM24.002 34C24.3998 34 24.7814 34.158 25.0627 34.4393C25.344 34.7206 25.502 35.1022 25.502 35.5C25.502 35.8978 25.344 36.2794 25.0627 36.5607C24.7814 36.842 24.3998 37 24.002 37C23.6042 37 23.2227 36.842 22.9413 36.5607C22.66 36.2794 22.502 35.8978 22.502 35.5C22.502 35.1022 22.66 34.7206 22.9413 34.4393C23.2227 34.158 23.6042 34 24.002 34ZM33.002 34C33.3998 34 33.7814 34.158 34.0627 34.4393C34.344 34.7206 34.502 35.1022 34.502 35.5C34.502 35.8978 34.344 36.2794 34.0627 36.5607C33.7814 36.842 33.3998 37 33.002 37C32.6042 37 32.2227 36.842 31.9413 36.5607C31.66 36.2794 31.502 35.8978 31.502 35.5C31.502 35.1022 31.66 34.7206 31.9413 34.4393C32.2227 34.158 32.6042 34 33.002 34ZM24.002 8C30.34 8 33.935 12.195 34.458 17.26H34.618C38.696 17.26 42.002 20.558 42.002 24.625C42.002 28.693 38.696 31.99 34.617 31.99H13.389C9.311 31.99 6.005 28.693 6.005 24.625C6.005 20.558 9.311 17.26 13.389 17.26H13.549C14.074 12.161 17.665 8 24.002 8Z" fill="white"/>
</svg>
