<svg width="48" height="48" viewBox="0 0 48 48" fill="none" xmlns="http://www.w3.org/2000/svg">
<path d="M23.999 4.00098C24.689 4.00098 25.249 4.56098 25.249 5.25098V7.75098C25.249 8.0825 25.1173 8.40044 24.8829 8.63486C24.6485 8.86928 24.3305 9.00098 23.999 9.00098C23.6675 9.00098 23.3495 8.86928 23.1151 8.63486C22.8807 8.40044 22.749 8.0825 22.749 7.75098V5.25098C22.749 4.56098 23.309 4.00098 23.999 4.00098ZM34.022 24.047C34.022 29.556 29.556 34.022 24.047 34.022C18.537 34.022 14.071 29.556 14.071 24.047C14.071 18.537 18.537 14.071 24.047 14.071C29.556 14.071 34.022 18.537 34.022 24.047ZM42.75 25.25C43.0815 25.25 43.3995 25.1183 43.6339 24.8839C43.8683 24.6494 44 24.3315 44 24C44 23.6685 43.8683 23.3505 43.6339 23.1161C43.3995 22.8817 43.0815 22.75 42.75 22.75H40.25C39.9185 22.75 39.6005 22.8817 39.3661 23.1161C39.1317 23.3505 39 23.6685 39 24C39 24.3315 39.1317 24.6494 39.3661 24.8839C39.6005 25.1183 39.9185 25.25 40.25 25.25H42.75ZM23.999 39C24.689 39 25.249 39.56 25.249 40.25V42.75C25.249 43.0815 25.1173 43.3994 24.8829 43.6339C24.6485 43.8683 24.3305 44 23.999 44C23.6675 44 23.3495 43.8683 23.1151 43.6339C22.8807 43.3994 22.749 43.0815 22.749 42.75V40.25C22.749 39.56 23.309 39 23.999 39ZM7.75 25.25C8.08152 25.25 8.39946 25.1183 8.63388 24.8839C8.8683 24.6494 9 24.3315 9 24C9 23.6685 8.8683 23.3505 8.63388 23.1161C8.39946 22.8817 8.08152 22.75 7.75 22.75H5.25C4.91848 22.75 4.60054 22.8817 4.36612 23.1161C4.1317 23.3505 4 23.6685 4 24C4 24.3315 4.1317 24.6494 4.36612 24.8839C4.60054 25.1183 4.91848 25.25 5.25 25.25H7.75ZM9.366 9.36598C9.48208 9.24987 9.61989 9.15776 9.77157 9.09493C9.92325 9.03209 10.0858 8.99974 10.25 8.99974C10.4142 8.99974 10.5768 9.03209 10.7284 9.09493C10.8801 9.15776 11.0179 9.24987 11.134 9.36598L13.634 11.866C13.7501 11.9821 13.8422 12.1199 13.905 12.2716C13.9678 12.4232 14.0002 12.5858 14.0002 12.75C14.0002 12.9142 13.9678 13.0767 13.905 13.2284C13.8422 13.3801 13.7501 13.5179 13.634 13.634C13.5179 13.7501 13.3801 13.8422 13.2284 13.905C13.0767 13.9678 12.9142 14.0001 12.75 14.0001C12.5858 14.0001 12.4233 13.9678 12.2716 13.905C12.1199 13.8422 11.9821 13.7501 11.866 13.634L9.366 11.134C9.24989 11.0179 9.15779 10.8801 9.09495 10.7284C9.03211 10.5767 8.99977 10.4142 8.99977 10.25C8.99977 10.0858 9.03211 9.92322 9.09495 9.77155C9.15779 9.61987 9.24989 9.48205 9.366 9.36598ZM11.134 38.635C10.8995 38.8694 10.5816 39.0011 10.25 39.0011C9.91844 39.0011 9.60045 38.8694 9.366 38.635C9.13155 38.4005 8.99984 38.0825 8.99984 37.751C8.99984 37.4194 9.13155 37.1014 9.366 36.867L11.866 34.367C11.9821 34.2509 12.1199 34.1588 12.2716 34.096C12.4233 34.0331 12.5858 34.0008 12.75 34.0008C12.9142 34.0008 13.0767 34.0331 13.2284 34.096C13.3801 34.1588 13.5179 34.2509 13.634 34.367C13.7501 34.4831 13.8422 34.6209 13.905 34.7726C13.9678 34.9242 14.0002 35.0868 14.0002 35.251C14.0002 35.4151 13.9678 35.5777 13.905 35.7294C13.8422 35.8811 13.7501 36.0189 13.634 36.135L11.134 38.635ZM38.634 9.36598C38.3996 9.13179 38.0818 9.00024 37.7505 9.00024C37.4192 9.00024 37.1014 9.13179 36.867 9.36598L34.367 11.866C34.1325 12.1004 34.0008 12.4184 34.0008 12.75C34.0008 13.0815 34.1325 13.3995 34.367 13.634C34.6015 13.8684 34.9194 14.0001 35.251 14.0001C35.5826 14.0001 35.9005 13.8684 36.135 13.634L38.635 11.134C38.7511 11.0179 38.8432 10.8801 38.9061 10.7284C38.9689 10.5767 39.0012 10.4142 39.0012 10.25C39.0012 10.0858 38.9689 9.92322 38.9061 9.77155C38.8432 9.61987 38.7501 9.48205 38.634 9.36598ZM36.867 38.635C37.1015 38.8694 37.4194 39.0011 37.751 39.0011C38.0826 39.0011 38.4005 38.8694 38.635 38.635C38.8694 38.4005 39.0012 38.0825 39.0012 37.751C39.0012 37.4194 38.8694 37.1014 38.635 36.867L36.135 34.367C36.0189 34.2509 35.8811 34.1588 35.7294 34.096C35.5777 34.0331 35.4152 34.0008 35.251 34.0008C35.0868 34.0008 34.9243 34.0331 34.7726 34.096C34.6209 34.1588 34.4831 34.2509 34.367 34.367C34.2509 34.4831 34.1588 34.6209 34.096 34.7726C34.0332 34.9242 34.0008 35.0868 34.0008 35.251C34.0008 35.4151 34.0332 35.5777 34.096 35.7294C34.1588 35.8811 34.2509 36.0189 34.367 36.135L36.867 38.635Z" fill="white"/>
</svg>
