<svg width="48" height="48" viewBox="0 0 48 48" fill="none" xmlns="http://www.w3.org/2000/svg">
<path d="M26 40C26.5304 39.9999 27.0392 40.2105 27.4143 40.5854C27.7895 40.9604 28.0003 41.4691 28.0005 41.9995C28.0006 42.5299 27.79 43.0387 27.415 43.4139C27.0401 43.789 26.5314 43.9999 26.001 44C25.4705 44 24.9618 43.7893 24.5868 43.4142C24.2117 43.0391 24.001 42.5304 24.001 42C24.001 41.4696 24.2117 40.9609 24.5868 40.5858C24.9618 40.2107 25.4695 40 26 40ZM19 38C19.5304 37.9999 20.0392 38.2105 20.4143 38.5854C20.7895 38.9604 21.0003 39.4691 21.0005 39.9995C21.0006 40.5299 20.79 41.0387 20.415 41.4139C20.0401 41.789 19.5314 41.9999 19.001 42C18.4705 42 17.9618 41.7893 17.5867 41.4142C17.2117 41.0391 17.001 40.5304 17.001 40C17.001 39.4696 17.2117 38.9609 17.5867 38.5858C17.9618 38.2107 18.4695 38 19 38ZM33 38C33.5304 37.9999 34.0392 38.2105 34.4143 38.5854C34.7895 38.9604 35.0003 39.4691 35.0005 39.9995C35.0006 40.5299 34.79 41.0387 34.415 41.4139C34.04 41.789 33.5314 41.9999 33.001 42C32.4705 42 31.9618 41.7893 31.5867 41.4142C31.2117 41.0391 31.001 40.5304 31.001 40C31.001 39.4696 31.2117 38.9609 31.5867 38.5858C31.9618 38.2107 32.4695 38 33 38ZM26 12.01C32.337 12.01 35.932 16.204 36.455 21.27H36.615C40.693 21.27 43.999 24.567 43.999 28.634C43.999 32.702 40.693 35.999 36.614 35.999H15.386C11.308 35.999 8.00196 32.702 8.00196 28.634C8.00196 24.567 11.308 21.269 15.386 21.269H15.546C16.072 16.17 19.664 12.009 26.001 12.009L26 12.01ZM7.56896 20.19C7.78663 20.5668 7.85611 21.0112 7.76385 21.4364C7.67159 21.8617 7.4242 22.2373 7.06996 22.49L6.92796 22.58L5.62897 23.33C5.23961 23.5556 4.77833 23.6225 4.34093 23.5169C3.90353 23.4112 3.52362 23.1412 3.28011 22.7628C3.0366 22.3844 2.9482 21.9267 3.03328 21.4849C3.11835 21.043 3.37036 20.6509 3.73697 20.39L3.87896 20.3L5.17896 19.55C5.5808 19.3181 6.05829 19.2552 6.50646 19.3752C6.95464 19.4952 7.33681 19.7883 7.56896 20.19ZM21.709 10.662C17.908 11.882 15.2 14.752 14.089 18.583L13.995 18.924L13.879 19.4L13.467 19.477C12.2699 19.7288 11.1345 20.2148 10.126 20.907C9.20646 19.3313 8.86195 17.4854 9.15119 15.6841C9.44043 13.8828 10.3455 12.2376 11.7121 11.0289C13.0787 9.82031 14.8222 9.12311 16.6454 9.05619C18.4685 8.98928 20.2574 9.5568 21.709 10.662ZM5.50497 9.978L5.63697 10.034L6.99696 10.668C7.40566 10.8594 7.72464 11.2012 7.8873 11.6221C8.04995 12.0431 8.04372 12.5106 7.86988 12.927C7.69605 13.3434 7.36807 13.6766 6.95441 13.857C6.54076 14.0374 6.07341 14.051 5.64997 13.895L5.51797 13.84L4.15796 13.206C3.74611 13.0166 3.42382 12.6748 3.25895 12.2525C3.09409 11.8302 3.09951 11.3605 3.27408 10.9421C3.44865 10.5238 3.77875 10.1895 4.19487 10.0097C4.61099 9.82982 5.08065 9.81847 5.50497 9.978ZM24.615 4.216C24.9751 4.46787 25.2273 4.84602 25.3214 5.2753C25.4155 5.70458 25.3447 6.15356 25.123 6.533L25.045 6.653L24.185 7.883C23.9268 8.25537 23.5343 8.51309 23.09 8.60194C22.6456 8.69078 22.1842 8.60384 21.8027 8.35938C21.4212 8.11493 21.1493 7.73203 21.0444 7.29125C20.9394 6.85046 21.0096 6.38615 21.24 5.996L21.318 5.875L22.178 4.646C22.3098 4.45763 22.4774 4.29707 22.6713 4.17351C22.8651 4.04994 23.0815 3.96579 23.3079 3.92586C23.5343 3.88593 23.7663 3.891 23.9908 3.94078C24.2152 3.99056 24.4267 4.08409 24.615 4.216ZM14.324 3.797L14.389 3.953L14.902 5.363C15.0559 5.78551 15.0412 6.25105 14.8611 6.66305C14.6809 7.07505 14.3491 7.4019 13.9344 7.5758C13.5197 7.74969 13.054 7.7573 12.6339 7.59702C12.2138 7.43675 11.8715 7.12091 11.678 6.715L11.613 6.559L11.1 5.149C10.9461 4.7265 10.9607 4.26096 11.1408 3.84896C11.321 3.43695 11.6528 3.11011 12.0675 2.93621C12.4822 2.76231 12.9479 2.75471 13.368 2.91498C13.7882 3.07525 14.1305 3.3911 14.324 3.797Z" fill="white"/>
</svg>
