<svg width="20" height="20" viewBox="0 0 20 20" fill="none" xmlns="http://www.w3.org/2000/svg">
<path d="M10 2C11.292 2 12.423 2.808 12.836 4.005C12.8984 4.18472 12.8901 4.38142 12.8129 4.55528C12.7356 4.72913 12.5952 4.86714 12.4201 4.94137C12.2449 5.0156 12.0481 5.0205 11.8695 4.95508C11.6909 4.88965 11.5438 4.7588 11.458 4.589L11.418 4.495C11.3152 4.2018 11.1232 3.94816 10.8688 3.7697C10.6145 3.59124 10.3107 3.49692 10 3.5C9.62712 3.50002 9.26761 3.63892 8.99158 3.88962C8.71555 4.14032 8.5428 4.48484 8.507 4.856L8.5 5L8.499 7H14C14.5304 7 15.0391 7.21071 15.4142 7.58579C15.7893 7.96086 16 8.46957 16 9V16C16 16.5304 15.7893 17.0391 15.4142 17.4142C15.0391 17.7893 14.5304 18 14 18H6C5.46957 18 4.96086 17.7893 4.58579 17.4142C4.21071 17.0391 4 16.5304 4 16V9C4 8.46957 4.21071 7.96086 4.58579 7.58579C4.96086 7.21071 5.46957 7 6 7H6.999L7 5C7 4.20435 7.31607 3.44129 7.87868 2.87868C8.44129 2.31607 9.20435 2 10 2ZM10 11.5C9.73478 11.5 9.48043 11.6054 9.29289 11.7929C9.10536 11.9804 9 12.2348 9 12.5C9 12.7652 9.10536 13.0196 9.29289 13.2071C9.48043 13.3946 9.73478 13.5 10 13.5C10.2652 13.5 10.5196 13.3946 10.7071 13.2071C10.8946 13.0196 11 12.7652 11 12.5C11 12.2348 10.8946 11.9804 10.7071 11.7929C10.5196 11.6054 10.2652 11.5 10 11.5Z" fill="white"/>
</svg>
