<svg width="18" height="20" viewBox="0 0 18 20" fill="none" xmlns="http://www.w3.org/2000/svg">
<path d="M9.24763 4.56191C9.15706 4.47521 9.05025 4.40724 8.93335 4.36191C8.70148 4.26666 8.4414 4.26666 8.20954 4.36191C8.09263 4.40724 7.98582 4.47521 7.89525 4.56191L4.08573 8.37143C3.99693 8.46023 3.92649 8.56565 3.87843 8.68167C3.83037 8.79769 3.80564 8.92204 3.80564 9.04762C3.80564 9.17321 3.83037 9.29756 3.87843 9.41358C3.92649 9.5296 3.99693 9.63502 4.08573 9.72381C4.17452 9.81261 4.27994 9.88305 4.39596 9.93111C4.51199 9.97917 4.63634 10.0039 4.76192 10.0039C4.8875 10.0039 5.01185 9.97917 5.12787 9.93111C5.24389 9.88305 5.34931 9.81261 5.43811 9.72381L7.61906 7.53334V18.5714C7.61906 18.824 7.7194 19.0663 7.89801 19.2449C8.07661 19.4235 8.31885 19.5238 8.57144 19.5238C8.82403 19.5238 9.06627 19.4235 9.24487 19.2449C9.42348 19.0663 9.52382 18.824 9.52382 18.5714V7.53334L11.7048 9.72381C11.7933 9.81308 11.8986 9.88393 12.0147 9.93228C12.1308 9.98063 12.2552 10.0055 12.381 10.0055C12.5067 10.0055 12.6312 9.98063 12.7472 9.93228C12.8633 9.88393 12.9686 9.81308 13.0572 9.72381C13.1464 9.63528 13.2173 9.52995 13.2656 9.41389C13.314 9.29783 13.3389 9.17335 13.3389 9.04762C13.3389 8.9219 13.314 8.79742 13.2656 8.68136C13.2173 8.5653 13.1464 8.45997 13.0572 8.37143L9.24763 4.56191ZM15.2381 0.476196H1.90477C1.65219 0.476196 1.40994 0.576536 1.23134 0.755142C1.05273 0.933748 0.952393 1.17599 0.952393 1.42858C0.952393 1.68116 1.05273 1.92341 1.23134 2.10201C1.40994 2.28062 1.65219 2.38096 1.90477 2.38096H15.2381C15.4907 2.38096 15.7329 2.28062 15.9115 2.10201C16.0901 1.92341 16.1905 1.68116 16.1905 1.42858C16.1905 1.17599 16.0901 0.933748 15.9115 0.755142C15.7329 0.576536 15.4907 0.476196 15.2381 0.476196Z" fill="white"/>
</svg>
