<svg width="16" height="16" viewBox="0 0 16 16" fill="none" xmlns="http://www.w3.org/2000/svg">
<path d="M6.66661 1.66669C7.59859 1.66665 8.51204 1.9271 9.30386 2.41864C10.0957 2.91017 10.7344 3.61324 11.1478 4.44849C11.5613 5.28374 11.7331 6.21793 11.6438 7.14563C11.5545 8.07333 11.2078 8.95761 10.6426 9.69869L13.8046 12.862C13.9242 12.982 13.9936 13.143 13.9988 13.3123C14.0039 13.4816 13.9445 13.6465 13.8324 13.7735C13.7204 13.9006 13.5642 13.9802 13.3956 13.9963C13.227 14.0123 13.0586 13.9636 12.9246 13.86L12.8619 13.8047L9.69861 10.6427C9.06727 11.1241 8.33038 11.4482 7.5489 11.5883C6.76742 11.7283 5.96383 11.6803 5.20461 11.4481C4.44539 11.2159 3.75237 10.8063 3.18291 10.2531C2.61344 9.69985 2.1839 9.01899 1.92983 8.26681C1.67575 7.51464 1.60444 6.71277 1.7218 5.92756C1.83917 5.14235 2.14183 4.39638 2.60474 3.75137C3.06765 3.10636 3.6775 2.58086 4.38384 2.21834C5.09017 1.85583 5.87268 1.66673 6.66661 1.66669ZM6.66661 3.00002C5.69415 3.00002 4.76152 3.38633 4.07388 4.07396C3.38625 4.7616 2.99994 5.69423 2.99994 6.66669C2.99994 7.63915 3.38625 8.57178 4.07388 9.25941C4.76152 9.94705 5.69415 10.3334 6.66661 10.3334C7.63907 10.3334 8.5717 9.94705 9.25933 9.25941C9.94697 8.57178 10.3333 7.63915 10.3333 6.66669C10.3333 5.69423 9.94697 4.7616 9.25933 4.07396C8.5717 3.38633 7.63907 3.00002 6.66661 3.00002Z" fill="white"/>
</svg>
